<svg width="57" height="11" viewBox="0 0 57 11" fill="none" xmlns="http://www.w3.org/2000/svg">
<path d="M6.01758 8.10156L0.380859 5.75195V4.5625L6.01758 2.20703V3.75391L2.53711 5.1543L6.01758 6.54883V8.10156ZM17.8594 4.95508V6.85938C17.8594 7.55859 17.8242 8.07227 17.7539 8.40039C17.6836 8.72461 17.5332 9.0293 17.3027 9.31445C17.0723 9.5957 16.7754 9.80469 16.4121 9.94141C16.0527 10.0742 15.6387 10.1406 15.1699 10.1406C14.6465 10.1406 14.2031 10.084 13.8398 9.9707C13.4766 9.85352 13.1934 9.67969 12.9902 9.44922C12.791 9.21484 12.6484 8.93359 12.5625 8.60547C12.4766 8.27344 12.4336 7.77734 12.4336 7.11719V5.125C12.4336 4.40234 12.5117 3.83789 12.668 3.43164C12.8242 3.02539 13.1055 2.69922 13.5117 2.45312C13.918 2.20703 14.4375 2.08398 15.0703 2.08398C15.6016 2.08398 16.0566 2.16406 16.4355 2.32422C16.8184 2.48047 17.1133 2.68555 17.3203 2.93945C17.5273 3.19336 17.668 3.45508 17.7422 3.72461C17.8203 3.99414 17.8594 4.4043 17.8594 4.95508ZM15.4922 4.36914C15.4922 3.9707 15.4707 3.7207 15.4277 3.61914C15.3848 3.51367 15.293 3.46094 15.1523 3.46094C15.0117 3.46094 14.918 3.51367 14.8711 3.61914C14.8242 3.7207 14.8008 3.9707 14.8008 4.36914V7.87891C14.8008 8.24609 14.8242 8.48633 14.8711 8.59961C14.918 8.70898 15.0098 8.76367 15.1465 8.76367C15.2871 8.76367 15.3789 8.71289 15.4219 8.61133C15.4688 8.50977 15.4922 8.29102 15.4922 7.95508V4.36914ZM24.0645 2.22461V10H21.6562L21.6973 9.35547C21.5332 9.61719 21.3301 9.81445 21.0879 9.94727C20.8496 10.0762 20.5742 10.1406 20.2617 10.1406C19.9062 10.1406 19.6113 10.0781 19.377 9.95312C19.1426 9.82812 18.9688 9.66211 18.8555 9.45508C18.7461 9.24805 18.6777 9.0332 18.6504 8.81055C18.623 8.58398 18.6094 8.13672 18.6094 7.46875V2.22461H20.9766V7.51562C20.9766 8.12109 20.9941 8.48047 21.0293 8.59375C21.0684 8.70703 21.1699 8.76367 21.334 8.76367C21.5098 8.76367 21.6133 8.70508 21.6445 8.58789C21.6797 8.4707 21.6973 8.09375 21.6973 7.45703V2.22461H24.0645ZM27.252 2.22461L27.2109 2.96289C27.3945 2.66992 27.6133 2.45117 27.8672 2.30664C28.1211 2.1582 28.4102 2.08398 28.7344 2.08398C29.3672 2.08398 29.8652 2.37695 30.2285 2.96289C30.4277 2.66992 30.6523 2.45117 30.9023 2.30664C31.1523 2.1582 31.4297 2.08398 31.7344 2.08398C32.1367 2.08398 32.4688 2.18164 32.7305 2.37695C32.9961 2.57227 33.166 2.8125 33.2402 3.09766C33.3145 3.37891 33.3516 3.83789 33.3516 4.47461V10H31.0547V4.93164C31.0547 4.26758 31.0312 3.85742 30.9844 3.70117C30.9414 3.54102 30.8379 3.46094 30.6738 3.46094C30.5059 3.46094 30.3965 3.53906 30.3457 3.69531C30.2988 3.85156 30.2754 4.26367 30.2754 4.93164V10H27.9785V5.06055C27.9785 4.29883 27.959 3.8418 27.9199 3.68945C27.8848 3.53711 27.7832 3.46094 27.6152 3.46094C27.5098 3.46094 27.4199 3.50195 27.3457 3.58398C27.2715 3.66211 27.2305 3.75977 27.2227 3.87695C27.2148 3.99023 27.2109 4.23438 27.2109 4.60938V10H24.9141V2.22461H27.252ZM36.5801 2.22461L36.5391 2.93945C36.7109 2.6543 36.9199 2.44141 37.166 2.30078C37.416 2.15625 37.7031 2.08398 38.0273 2.08398C38.4336 2.08398 38.7656 2.17969 39.0234 2.37109C39.2812 2.5625 39.4473 2.80469 39.5215 3.09766C39.5957 3.38672 39.6328 3.87109 39.6328 4.55078V10H37.2656V4.61523C37.2656 4.08008 37.248 3.75391 37.2129 3.63672C37.1777 3.51953 37.0801 3.46094 36.9199 3.46094C36.752 3.46094 36.6465 3.5293 36.6035 3.66602C36.5605 3.79883 36.5391 4.1582 36.5391 4.74414V10H34.1719V2.22461H36.5801ZM42.5684 5.23633H40.3477V4.71484C40.3477 4.11328 40.416 3.65039 40.5527 3.32617C40.6934 2.99805 40.9727 2.70898 41.3906 2.45898C41.8086 2.20898 42.3516 2.08398 43.0195 2.08398C43.8203 2.08398 44.4238 2.22656 44.8301 2.51172C45.2363 2.79297 45.4805 3.14062 45.5625 3.55469C45.6445 3.96484 45.6855 4.8125 45.6855 6.09766V10H43.3828V9.30859C43.2383 9.58594 43.0508 9.79492 42.8203 9.93555C42.5938 10.0723 42.3223 10.1406 42.0059 10.1406C41.5918 10.1406 41.2109 10.0254 40.8633 9.79492C40.5195 9.56055 40.3477 9.05078 40.3477 8.26562V7.62695C40.3477 7.04492 40.4395 6.64844 40.623 6.4375C40.8066 6.22656 41.2617 5.98047 41.9883 5.69922C42.7656 5.39453 43.1816 5.18945 43.2363 5.08398C43.291 4.97852 43.3184 4.76367 43.3184 4.43945C43.3184 4.0332 43.2871 3.76953 43.2246 3.64844C43.166 3.52344 43.0664 3.46094 42.9258 3.46094C42.7656 3.46094 42.666 3.51367 42.627 3.61914C42.5879 3.7207 42.5684 3.98828 42.5684 4.42188V5.23633ZM43.3184 6.30273C42.9395 6.58008 42.7188 6.8125 42.6562 7C42.5977 7.1875 42.5684 7.45703 42.5684 7.80859C42.5684 8.21094 42.5938 8.4707 42.6445 8.58789C42.6992 8.70508 42.8047 8.76367 42.9609 8.76367C43.1094 8.76367 43.2051 8.71875 43.248 8.62891C43.2949 8.53516 43.3184 8.29297 43.3184 7.90234V6.30273ZM50.7539 0.332031L47.9414 10.1816H46.1484L48.9785 0.332031H50.7539ZM51.2051 2.20703L56.8418 4.55078V5.74609L51.2051 8.10156V6.55469L54.6855 5.1543L51.2051 3.75977V2.20703Z" fill="#1B1A17"/>
<path d="M12.1465 0.513672L10.3477 6.56641V10H8.0625V6.56641L6.32812 0.513672H8.5957C8.95117 2.36133 9.15039 3.60547 9.19336 4.24609C9.33008 3.23438 9.55859 1.99023 9.87891 0.513672H12.1465Z" fill="#721CFF"/>
</svg>
