<svg width="425" height="75" viewBox="0 0 425 75" fill="none" xmlns="http://www.w3.org/2000/svg">
<path d="M43.1318 58.7617L0.856445 41.1396V32.2188L43.1318 14.5527V26.1543L17.0283 36.6572L43.1318 47.1162V58.7617ZM89.0986 1.85254L75.6074 47.248V73H58.4688V47.248L45.4609 1.85254H62.4678C65.1338 15.71 66.6279 25.041 66.9502 29.8457C67.9756 22.2578 69.6895 12.9268 72.0918 1.85254H89.0986ZM378.654 0.490234L357.561 74.3623H344.113L365.339 0.490234H378.654ZM382.038 14.5527L424.313 32.1309V41.0957L382.038 58.7617V47.1602L408.142 36.6572L382.038 26.1982V14.5527Z" fill="#AD00FF"/>
<path d="M131.945 35.1631V49.4453C131.945 54.6895 131.682 58.542 131.154 61.0029C130.627 63.4346 129.499 65.7197 127.771 67.8584C126.042 69.9678 123.815 71.5352 121.091 72.5605C118.396 73.5566 115.29 74.0547 111.774 74.0547C107.849 74.0547 104.523 73.6299 101.799 72.7803C99.0742 71.9014 96.9502 70.5977 95.4268 68.8691C93.9326 67.1113 92.8633 65.002 92.2188 62.541C91.5742 60.0508 91.252 56.3301 91.252 51.3789V36.4375C91.252 31.0176 91.8379 26.7842 93.0098 23.7373C94.1816 20.6904 96.291 18.2441 99.3379 16.3984C102.385 14.5527 106.281 13.6299 111.027 13.6299C115.012 13.6299 118.425 14.2305 121.267 15.4316C124.138 16.6035 126.35 18.1416 127.902 20.0459C129.455 21.9502 130.51 23.9131 131.066 25.9346C131.652 27.9561 131.945 31.0322 131.945 35.1631ZM114.191 30.7686C114.191 27.7803 114.03 25.9053 113.708 25.1436C113.386 24.3525 112.697 23.957 111.643 23.957C110.588 23.957 109.885 24.3525 109.533 25.1436C109.182 25.9053 109.006 27.7803 109.006 30.7686V57.0918C109.006 59.8457 109.182 61.6475 109.533 62.4971C109.885 63.3174 110.573 63.7275 111.599 63.7275C112.653 63.7275 113.342 63.3467 113.664 62.585C114.016 61.8232 114.191 60.1826 114.191 57.6631V30.7686ZM178.483 14.6846V73H160.422L160.729 68.166C159.499 70.1289 157.976 71.6084 156.159 72.6045C154.372 73.5713 152.307 74.0547 149.963 74.0547C147.297 74.0547 145.085 73.5859 143.327 72.6484C141.569 71.7109 140.266 70.4658 139.416 68.9131C138.596 67.3604 138.083 65.749 137.878 64.0791C137.673 62.3799 137.57 59.0254 137.57 54.0156V14.6846H155.324V54.3672C155.324 58.9082 155.456 61.6035 155.72 62.4531C156.013 63.3027 156.774 63.7275 158.005 63.7275C159.323 63.7275 160.1 63.2881 160.334 62.4092C160.598 61.5303 160.729 58.7031 160.729 53.9277V14.6846H178.483ZM202.39 14.6846L202.082 20.2217C203.459 18.0244 205.1 16.3838 207.004 15.2998C208.908 14.1865 211.076 13.6299 213.508 13.6299C218.254 13.6299 221.989 15.8271 224.714 20.2217C226.208 18.0244 227.893 16.3838 229.768 15.2998C231.643 14.1865 233.723 13.6299 236.008 13.6299C239.025 13.6299 241.516 14.3623 243.479 15.8271C245.471 17.292 246.745 19.0938 247.302 21.2324C247.858 23.3418 248.137 26.7842 248.137 31.5596V73H230.91V34.9873C230.91 30.0068 230.734 26.9307 230.383 25.7588C230.061 24.5576 229.284 23.957 228.054 23.957C226.794 23.957 225.974 24.543 225.593 25.7148C225.241 26.8867 225.065 29.9775 225.065 34.9873V73H207.839V35.9541C207.839 30.2412 207.692 26.8135 207.399 25.6709C207.136 24.5283 206.374 23.957 205.114 23.957C204.323 23.957 203.649 24.2646 203.093 24.8799C202.536 25.4658 202.229 26.1982 202.17 27.0771C202.111 27.9268 202.082 29.7578 202.082 32.5703V73H184.855V14.6846H202.39ZM272.351 14.6846L272.043 20.0459C273.332 17.9072 274.899 16.3105 276.745 15.2559C278.62 14.1719 280.773 13.6299 283.205 13.6299C286.252 13.6299 288.742 14.3477 290.676 15.7832C292.609 17.2188 293.854 19.0352 294.411 21.2324C294.968 23.4004 295.246 27.0332 295.246 32.1309V73H277.492V32.6143C277.492 28.6006 277.36 26.1543 277.097 25.2754C276.833 24.3965 276.101 23.957 274.899 23.957C273.64 23.957 272.849 24.4697 272.526 25.4951C272.204 26.4912 272.043 29.1865 272.043 33.5811V73H254.289V14.6846H272.351ZM317.263 37.2725H300.607V33.3613C300.607 28.8496 301.12 25.3779 302.146 22.9463C303.2 20.4854 305.295 18.3174 308.43 16.4424C311.564 14.5674 315.637 13.6299 320.646 13.6299C326.652 13.6299 331.179 14.6992 334.226 16.8379C337.272 18.9473 339.104 21.5547 339.719 24.6602C340.334 27.7363 340.642 34.0938 340.642 43.7324V73H323.371V67.8145C322.287 69.8945 320.881 71.4619 319.152 72.5166C317.453 73.542 315.417 74.0547 313.044 74.0547C309.938 74.0547 307.082 73.1904 304.475 71.4619C301.896 69.7041 300.607 65.8809 300.607 59.9922V55.2021C300.607 50.8369 301.296 47.8633 302.673 46.2812C304.05 44.6992 307.463 42.8535 312.912 40.7441C318.742 38.459 321.862 36.9209 322.272 36.1299C322.683 35.3389 322.888 33.7275 322.888 31.2959C322.888 28.249 322.653 26.2715 322.185 25.3633C321.745 24.4258 320.998 23.957 319.943 23.957C318.742 23.957 317.995 24.3525 317.702 25.1436C317.409 25.9053 317.263 27.9121 317.263 31.1641V37.2725ZM322.888 45.2705C320.046 47.3506 318.391 49.0938 317.922 50.5C317.482 51.9062 317.263 53.9277 317.263 56.5645C317.263 59.582 317.453 61.5303 317.834 62.4092C318.244 63.2881 319.035 63.7275 320.207 63.7275C321.32 63.7275 322.038 63.3906 322.36 62.7168C322.712 62.0137 322.888 60.1973 322.888 57.2676V45.2705Z" fill="black"/>
</svg>
