<svg width="126" height="50" viewBox="0 0 126 63" fill="none" xmlns="http://www.w3.org/2000/svg">
<path fill-rule="evenodd" clip-rule="evenodd" d="M77.0033 0.938678C73.9751 -0.809174 70.1045 0.226902 68.3567 3.25511L46.6812 40.8002C44.9334 43.8284 45.9695 47.699 48.9977 49.4468C52.0259 51.1947 55.8964 50.1565 57.6443 47.1304L79.3197 9.58738C81.0676 6.55918 80.0294 2.68864 77.0033 0.940783V0.938678Z" fill="url(#paint0_linear_1_47)"/>
<path fill-rule="evenodd" clip-rule="evenodd" d="M54.9383 0.938667C51.9122 -0.807079 48.0395 0.226891 46.2917 3.2572L29.845 31.743L11.6884 2.95185C9.82051 -0.000540431 5.91207 -0.889207 2.95546 0.976572C-0.00325464 2.84025 -0.88771 6.7508 0.975964 9.7053L24.7173 47.3431C25.8902 49.2004 27.8676 50.2386 29.9082 50.2934C30.0261 50.2976 30.144 50.2892 30.2577 50.287C30.3399 50.2828 30.422 50.287 30.4999 50.2807C32.5405 50.1502 34.48 49.032 35.5792 47.1304L39.9657 39.5325L57.2568 9.58527C59.0025 6.55917 57.9686 2.68652 54.9383 0.938667Z" fill="url(#paint1_linear_1_47)"/>
<path fill-rule="evenodd" clip-rule="evenodd" d="M125.989 43.6389C125.983 43.4262 125.96 43.2135 125.926 43.0029C125.922 42.9924 125.922 42.984 125.92 42.9734C125.909 42.9018 125.897 42.8302 125.884 42.7565C125.878 42.7334 125.874 42.7102 125.872 42.6871C125.855 42.6091 125.836 42.527 125.817 42.447C125.813 42.4344 125.81 42.4217 125.806 42.4112C125.802 42.388 125.796 42.3691 125.789 42.3459C125.773 42.2764 125.754 42.209 125.73 42.1395C125.678 41.9563 125.617 41.7752 125.543 41.6025C125.53 41.5667 125.514 41.5331 125.501 41.5015C125.488 41.4657 125.471 41.4299 125.455 41.3941C125.442 41.3709 125.431 41.3456 125.419 41.3225C125.4 41.2761 125.379 41.234 125.36 41.1919C125.311 41.0908 125.259 40.9897 125.2 40.8908C125.166 40.8255 125.128 40.756 125.088 40.6949C125.084 40.6907 125.084 40.6886 125.082 40.6844C125.063 40.6507 125.046 40.6212 125.023 40.5896L124.918 40.4254L101.284 2.95185C99.42 -0.000540431 95.5074 -0.889207 92.555 0.976572C91.5168 1.62938 90.7397 2.53911 90.2427 3.56466L77.7825 25.1454C77.7825 25.1454 77.7825 25.1496 77.7782 25.1496L68.7442 40.8002C67.07 43.6979 67.9545 47.3641 70.6858 49.2046C70.7026 49.2173 70.7195 49.2278 70.7384 49.2404C70.8437 49.3099 70.949 49.3836 71.0585 49.4468C71.1006 49.4721 71.1469 49.4931 71.1933 49.5163C71.2333 49.5395 71.2712 49.5584 71.3154 49.5795C71.4565 49.6553 71.5997 49.7227 71.745 49.7859C71.7913 49.809 71.8398 49.8259 71.8882 49.8448C72.0314 49.8996 72.1788 49.9564 72.3241 50.0028C72.3768 50.0196 72.4294 50.0322 72.482 50.0491C72.6295 50.0912 72.7769 50.1312 72.9285 50.1628C72.9874 50.1733 73.0464 50.1818 73.1096 50.1923C73.2528 50.2176 73.3981 50.2407 73.5413 50.2576C73.6129 50.2681 73.6887 50.2702 73.7645 50.2744C73.8951 50.2849 74.0256 50.2934 74.1583 50.2934C74.1836 50.2976 74.213 50.2997 74.2425 50.2997H119.676C119.784 50.2997 119.893 50.2955 119.996 50.2892C120.192 50.2786 120.386 50.2597 120.582 50.2344C120.641 50.2239 120.7 50.2155 120.759 50.2049C120.851 50.1923 120.946 50.1712 121.037 50.1523C121.091 50.1354 121.15 50.1228 121.209 50.1102C121.272 50.0975 121.338 50.0765 121.399 50.0575C121.468 50.0386 121.536 50.0175 121.605 49.9943C121.611 49.9901 121.618 49.9901 121.624 49.9901C121.761 49.9438 121.896 49.8911 122.03 49.8385C122.102 49.809 122.172 49.7795 122.241 49.7501C122.311 49.7206 122.378 49.6869 122.443 49.6553C122.557 49.6026 122.673 49.5416 122.784 49.4742C122.814 49.4573 122.843 49.4384 122.877 49.4215C122.932 49.3879 122.991 49.3521 123.048 49.3163C123.166 49.2404 123.283 49.1625 123.395 49.0804C123.5 49.0046 123.597 48.9288 123.696 48.8509C123.703 48.8403 123.713 48.834 123.721 48.8277C123.814 48.7498 123.905 48.6698 123.993 48.5855C124.016 48.5666 124.042 48.5434 124.063 48.5202C124.138 48.4508 124.21 48.3792 124.275 48.3033C124.294 48.2865 124.309 48.2696 124.324 48.2549C124.408 48.1601 124.494 48.0612 124.576 47.9643C124.652 47.8716 124.724 47.7769 124.793 47.6821C124.804 47.6695 124.81 47.659 124.819 47.6463C124.829 47.6295 124.842 47.6168 124.848 47.6C124.897 47.5347 124.943 47.4694 124.983 47.3999C125.017 47.3536 125.046 47.3073 125.071 47.2588C125.13 47.1662 125.185 47.0714 125.238 46.9746C125.301 46.8608 125.36 46.7429 125.41 46.625L125.415 46.6208C125.415 46.6208 125.419 46.6145 125.419 46.6102C125.471 46.4965 125.52 46.3786 125.566 46.2607C125.661 46.0143 125.743 45.7658 125.806 45.5131C125.84 45.3846 125.865 45.2583 125.89 45.1298C125.914 45.0014 125.933 44.8708 125.949 44.7424C125.966 44.6286 125.975 44.5107 125.983 44.3949C125.987 44.3717 125.989 44.3486 125.987 44.3254C125.998 44.2033 126 44.0832 126 43.9611V43.9548C126 43.8474 125.996 43.7421 125.989 43.6347V43.6389ZM85.1908 37.6351L96.1833 18.5962L108.191 37.6351H85.1908Z" fill="url(#paint2_linear_1_47)"/>
<path fill-rule="evenodd" clip-rule="evenodd" d="M125.566 46.2628C125.661 46.0164 125.743 45.7679 125.806 45.5152C125.743 45.77 125.665 46.0206 125.566 46.2628Z" fill="url(#paint3_linear_1_47)"/>
<path d="M33.9766 55.2484H32.2372C31.8392 55.2484 31.6012 55.4169 31.5212 55.7517L30.4725 59.3064C30.4325 59.477 30.3946 59.6475 30.3588 59.8139C30.323 59.9824 30.2851 60.1508 30.2451 60.3214H30.0892C30.0492 60.1508 30.0134 59.9802 29.9818 59.8139C29.9503 59.6475 29.9103 59.4791 29.8618 59.3148L28.8026 55.7496C28.7162 55.4148 28.4783 55.2463 28.0887 55.2463H26.3851C25.9492 55.2463 25.7217 55.4379 25.707 55.8212L25.3974 62.3346H27.0884L27.339 56.4572H27.5412L28.8636 60.8752C28.95 61.2037 29.1964 61.368 29.6028 61.368H30.7463C31.1506 61.368 31.3886 61.2037 31.4602 60.8752L32.7826 56.4572H32.9974L33.2712 62.3346H34.9516L34.6421 55.8212C34.6252 55.4379 34.4041 55.2463 33.9745 55.2463L33.9766 55.2484Z" fill="#414042"/>
<path d="M54.3317 55.8802C54.058 55.6022 53.6937 55.4043 53.2409 55.2842C52.7882 55.1642 52.2364 55.1052 51.5857 55.1052C50.935 55.1052 50.3833 55.1642 49.9305 55.2842C49.4778 55.4043 49.1113 55.6022 48.8355 55.8802C48.5575 56.1581 48.3554 56.5351 48.229 57.011C48.1027 57.4869 48.0395 58.0808 48.0395 58.7926C48.0395 59.5043 48.1027 60.1003 48.229 60.5741C48.3554 61.05 48.5596 61.427 48.8355 61.7049C49.1135 61.9829 49.4778 62.1809 49.9305 62.3009C50.3833 62.4209 50.935 62.4799 51.5857 62.4799C52.2364 62.4799 52.7882 62.4188 53.2409 62.3009C53.6937 62.1809 54.0559 61.9829 54.3317 61.7049C54.6055 61.427 54.8056 61.0521 54.934 60.5741C55.0604 60.0982 55.1235 59.5043 55.1235 58.7926C55.1235 58.0808 55.0604 57.4869 54.934 57.011C54.8056 56.5351 54.6055 56.1581 54.3317 55.8802ZM53.0577 60.273C52.9587 60.6289 52.7924 60.8795 52.5565 61.0227C52.3228 61.1658 51.9985 61.2396 51.5857 61.2396C51.173 61.2396 50.8381 61.168 50.6023 61.0227C50.3685 60.8795 50.2022 60.6289 50.1011 60.273C50.0021 59.9171 49.9537 59.4243 49.9537 58.7926C49.9537 58.1608 50.0021 57.6617 50.1011 57.3079C50.2001 56.9563 50.3664 56.7078 50.6023 56.5625C50.836 56.4193 51.1646 56.3456 51.5857 56.3456C52.0069 56.3456 52.3228 56.4172 52.5565 56.5625C52.7903 56.7057 52.9587 56.9542 53.0577 57.3079C53.1567 57.6596 53.2072 58.1545 53.2072 58.7926C53.2072 59.4306 53.1588 59.9171 53.0577 60.273Z" fill="#414042"/>
<path d="M75.4471 56.4193V55.2484H69.5612V56.4193H73.436L69.4665 61.1658V62.3367H75.5418V61.1658H71.4881L75.4471 56.4193Z" fill="#414042"/>
<path d="M94.208 59.2643C94.208 59.4559 94.2144 59.6496 94.227 59.8455C94.2396 60.0413 94.2565 60.2414 94.2796 60.4456H94.1364C94.0417 60.2393 93.9427 60.0413 93.8395 59.8497C93.7363 59.6581 93.6374 59.4833 93.5405 59.3253L91.3378 55.718C91.2409 55.5601 91.144 55.4422 91.0451 55.3642C90.9461 55.2863 90.8008 55.2463 90.6113 55.2463H89.6215C89.1772 55.2463 88.954 55.4358 88.954 55.8107V62.3346H90.6807V58.184C90.6807 57.9986 90.6723 57.8133 90.6576 57.6238C90.6407 57.4343 90.6218 57.249 90.5986 57.0637H90.7292C90.7924 57.2427 90.8703 57.4259 90.9608 57.6175C91.0514 57.8091 91.1461 57.9839 91.2409 58.1418L93.5173 61.8608C93.6037 62.0187 93.7005 62.1366 93.8037 62.2146C93.9069 62.2925 94.0585 62.3325 94.2565 62.3325H95.2567C95.6927 62.3325 95.9117 62.1451 95.9117 61.7681V55.2442H94.1975L94.2101 59.2622L94.208 59.2643Z" fill="#414042"/>
<path d="M120.386 55.5053C120.27 55.4295 120.137 55.3916 119.988 55.3916H118.261C118.109 55.3916 117.977 55.4295 117.861 55.5053C117.745 55.5812 117.669 55.6801 117.629 55.8044L115.235 62.482H117.105L117.707 60.612H120.54L121.142 62.482H123.001L120.62 55.8044C120.58 55.6801 120.502 55.5812 120.388 55.5053H120.386ZM118.088 59.4306L118.783 57.2722C118.823 57.1563 118.857 57.0384 118.884 56.9184C118.912 56.7983 118.937 56.6846 118.962 56.5751H119.284C119.308 56.6846 119.335 56.8004 119.369 56.9184C119.4 57.0384 119.432 57.1563 119.463 57.2722L120.158 59.4306H118.088Z" fill="#414042"/>
<path d="M125.659 55.3916H123.848V62.4799H125.659V55.3916Z" fill="#414042"/>
<path d="M105.761 60.9195H105.308C105.076 60.9195 104.916 60.9595 104.826 61.0374C104.735 61.1174 104.689 61.2543 104.689 61.4543V61.9471C104.689 62.1472 104.735 62.284 104.826 62.3641C104.916 62.442 105.078 62.482 105.308 62.482H105.761C105.992 62.482 106.152 62.442 106.243 62.3641C106.333 62.2862 106.38 62.1472 106.38 61.9471V61.4543C106.38 61.2564 106.333 61.1174 106.243 61.0374C106.152 60.9595 105.99 60.9195 105.761 60.9195Z" fill="#414042"/>
<defs>
<linearGradient id="paint0_linear_1_47" x1="-6.77776" y1="0.955523" x2="133.969" y2="49.8448" gradientUnits="userSpaceOnUse">
<stop stop-color="#02FDAA"/>
<stop offset="1" stop-color="#835DF9"/>
</linearGradient>
<linearGradient id="paint1_linear_1_47" x1="-9.15315" y1="7.79741" x2="131.591" y2="56.6888" gradientUnits="userSpaceOnUse">
<stop stop-color="#02FDAA"/>
<stop offset="1" stop-color="#835DF9"/>
</linearGradient>
<linearGradient id="paint2_linear_1_47" x1="-4.38553" y1="-5.9306" x2="136.361" y2="42.9587" gradientUnits="userSpaceOnUse">
<stop stop-color="#02FDAA"/>
<stop offset="1" stop-color="#835DF9"/>
</linearGradient>
<linearGradient id="paint3_linear_1_47" x1="-6.43756" y1="-0.00900693" x2="134.304" y2="48.8788" gradientUnits="userSpaceOnUse">
<stop stop-color="#02FDAA"/>
<stop offset="1" stop-color="#835DF9"/>
</linearGradient>
</defs>
</svg>
